<svg width="613" height="191" viewBox="0 0 613 191" fill="none" xmlns="http://www.w3.org/2000/svg">
<rect y="33.8513" width="334.279" height="156.561" fill="url(#paint0_linear_2333_17)"/>
<path d="M518.115 189.396V74.472H548.581V84.6273H549.088C555.746 76.0517 564.716 71.7639 576 71.7639C587.284 71.7639 596.198 76.1646 602.742 84.9658C609.287 93.6543 612.559 104.487 612.559 117.463C612.559 131.567 609.118 142.795 602.235 151.145C595.351 159.495 586.155 163.67 574.646 163.67C564.603 163.67 556.592 160.002 550.612 152.668H550.104V189.396H518.115ZM565.168 140.143C569.907 140.143 573.574 138.281 576.169 134.558C578.764 130.721 580.062 125.474 580.062 118.817C580.062 112.16 578.764 106.913 576.169 103.076C573.574 99.2397 569.907 97.3215 565.168 97.3215C560.316 97.3215 556.366 99.3525 553.32 103.415C550.386 107.477 548.919 112.611 548.919 118.817C548.919 125.136 550.386 130.27 553.32 134.219C556.366 138.168 560.316 140.143 565.168 140.143Z" fill="#DBFFE8"/>
<path d="M474.644 160.793V74.473H506.633V160.793H474.644ZM474.644 63.9791V39.7756H506.633V63.9791H474.644Z" fill="#DBFFE8"/>
<path d="M430.346 160.793V39.7756H463.182V160.793H430.346Z" fill="#DBFFE8"/>
<path d="M379.639 163.501C365.535 163.501 354.082 159.213 345.28 150.638C336.592 142.062 332.248 131.117 332.248 117.802C332.248 104.488 336.592 93.5424 345.28 84.9668C354.082 76.2783 365.535 71.9341 379.639 71.9341C391.6 71.9341 401.417 75.1499 409.09 81.5816C416.875 87.9005 421.333 96.194 422.461 106.462H391.656C389.851 98.3379 385.733 94.2758 379.301 94.2758C369.597 94.2758 364.745 102.118 364.745 117.802C364.745 125.137 365.986 130.835 368.468 134.897C371.064 138.959 374.787 140.99 379.639 140.99C387.087 140.99 391.262 135.969 392.164 125.927H422.969C422.969 136.759 418.907 145.729 410.782 152.838C402.771 159.947 392.39 163.501 379.639 163.501Z" fill="#DBFFE8"/>
<rect x="330.047" y="16.926" width="8.46277" height="173.487" fill="#38EED0"/>
<circle cx="334.279" cy="16.9255" r="16.9255" fill="#38EED0"/>
<path d="M263.165 97.9991V78.704H274.336V50.7769H305.648V78.704H322.066V97.9991H305.648V133.035C305.648 135.743 306.269 137.774 307.51 139.128C308.864 140.482 310.726 141.216 313.096 141.328C315.465 141.441 318.343 141.385 321.728 141.159V164.686C316.086 166.04 310.839 166.717 305.987 166.717C295.042 166.717 287.03 164.799 281.953 160.962C276.875 157.013 274.336 150.073 274.336 140.144V97.9991H263.165Z" fill="#DBFFE8"/>
<path d="M220.043 167.902C206.953 167.902 196.46 165.193 188.561 159.777C180.662 154.361 176.657 146.801 176.544 137.097H207.179C207.743 144.657 212.088 148.437 220.212 148.437C227.546 148.437 231.213 145.955 231.213 140.99C231.213 138.056 229.69 136.025 226.644 134.897C223.597 133.656 218.971 132.584 212.765 131.681C211.523 131.568 210.621 131.455 210.057 131.342C206.559 130.778 203.568 130.214 201.086 129.65C198.716 129.086 195.952 128.183 192.792 126.942C189.746 125.588 187.263 124.008 185.345 122.203C183.54 120.284 181.96 117.746 180.606 114.586C179.365 111.427 178.744 107.759 178.744 103.584C178.744 95.0089 182.524 88.2951 190.084 83.4431C197.644 78.4783 206.953 75.9958 218.011 75.9958C230.988 75.9958 240.917 78.309 247.8 82.9353C254.796 87.5616 258.576 94.1626 259.141 102.738H229.013C228.336 97.5477 224.725 94.9525 218.181 94.9525C215.586 94.9525 213.385 95.5166 211.58 96.645C209.887 97.6605 209.041 99.1838 209.041 101.215C209.041 103.359 210.395 104.882 213.103 105.785C215.924 106.687 220.494 107.59 226.813 108.493C230.875 109.057 234.147 109.621 236.63 110.185C239.225 110.637 242.328 111.596 245.939 113.063C249.662 114.417 252.54 116.109 254.571 118.14C256.715 120.059 258.576 122.767 260.156 126.265C261.736 129.65 262.526 133.656 262.526 138.282C262.526 148.099 258.576 155.489 250.678 160.454C242.892 165.419 232.68 167.902 220.043 167.902Z" fill="#DBFFE8"/>
<path d="M142.004 78.7051V91.7377H142.512C148.831 81.8081 157.576 76.8433 168.747 76.8433C171.116 76.8433 172.865 77.1253 173.994 77.6895V104.94H173.317C163.838 103.36 156.504 104.658 151.313 108.833C146.123 113.007 143.528 119.947 143.528 129.651V165.025H111.538V78.7051H142.004Z" fill="#DBFFE8"/>
<path d="M0 97.9995L0 78.7044H11.848V73.9653C11.848 64.1485 14.3304 56.8705 19.2952 52.1313C26.5168 45.2483 40.3393 42.8787 60.7628 45.0226V66.1795C57.7162 66.1795 55.3466 66.2359 53.6541 66.3488C52.0744 66.4616 50.3818 66.8566 48.5764 67.5336C46.8839 68.0978 45.6427 69.1133 44.8528 70.5802C44.1758 72.047 43.8373 74.0217 43.8373 76.5041V78.7044H60.7628V97.9995H43.8373V165.025H11.848V97.9995H0ZM68.0408 165.025V78.7044H100.03V165.025H68.0408ZM68.0408 68.2106V44.0071H100.03V68.2106H68.0408Z" fill="#DBFFE8"/>
<defs>
<linearGradient id="paint0_linear_2333_17" x1="334.279" y1="112.132" x2="-9.43294e-06" y2="112.132" gradientUnits="userSpaceOnUse">
<stop stop-color="#105E53"/>
<stop offset="1" stop-color="#105E53" stop-opacity="0"/>
</linearGradient>
</defs>
</svg>
